<mxfile host="app.diagrams.net" agent="Mozilla/5.0 (Macintosh; Intel Mac OS X 10_15_7) AppleWebKit/537.36 (KHTML, like Gecko) Chrome/131.0.0.0 Safari/537.36" version="24.8.6">
  <diagram id="C5RBs43oDa-KdzZeNtuy" name="Page-1">
    <mxGraphModel dx="2139" dy="833" grid="1" gridSize="10" guides="1" tooltips="1" connect="1" arrows="1" fold="1" page="1" pageScale="1" pageWidth="827" pageHeight="1169" math="0" shadow="0">
      <root>
        <mxCell id="WIyWlLk6GJQsqaUBKTNV-0" />
        <mxCell id="WIyWlLk6GJQsqaUBKTNV-1" parent="WIyWlLk6GJQsqaUBKTNV-0" />
        <mxCell id="yJDKLL-mW4QxloJMJQi_-3" value="" style="endArrow=classic;html=1;rounded=0;exitX=1;exitY=0.5;exitDx=0;exitDy=0;entryX=0;entryY=0.5;entryDx=0;entryDy=0;" parent="WIyWlLk6GJQsqaUBKTNV-1" source="yJDKLL-mW4QxloJMJQi_-0" target="yJDKLL-mW4QxloJMJQi_-2" edge="1">
          <mxGeometry width="50" height="50" relative="1" as="geometry">
            <mxPoint x="-650" y="470" as="sourcePoint" />
            <mxPoint x="-600" y="420" as="targetPoint" />
          </mxGeometry>
        </mxCell>
        <mxCell id="yJDKLL-mW4QxloJMJQi_-9" value="CSE 312" style="rhombus;whiteSpace=wrap;html=1;shadow=0;fontFamily=Helvetica;fontSize=12;align=center;strokeWidth=1;spacing=6;spacingTop=-4;fillColor=#dae8fc;strokeColor=#6c8ebf;" parent="WIyWlLk6GJQsqaUBKTNV-1" vertex="1">
          <mxGeometry x="-400" y="430" width="100" height="80" as="geometry" />
        </mxCell>
        <mxCell id="yJDKLL-mW4QxloJMJQi_-12" value="CSE 332" style="rhombus;whiteSpace=wrap;html=1;shadow=0;fontFamily=Helvetica;fontSize=12;align=center;strokeWidth=1;spacing=6;spacingTop=-4;fillColor=#ffe6cc;strokeColor=#d79b00;" parent="WIyWlLk6GJQsqaUBKTNV-1" vertex="1">
          <mxGeometry x="-400" y="330" width="100" height="80" as="geometry" />
        </mxCell>
        <mxCell id="yJDKLL-mW4QxloJMJQi_-13" value="" style="endArrow=classic;html=1;rounded=0;entryX=0;entryY=0.5;entryDx=0;entryDy=0;exitX=1;exitY=0.5;exitDx=0;exitDy=0;strokeColor=#990000;" parent="WIyWlLk6GJQsqaUBKTNV-1" source="WIyWlLk6GJQsqaUBKTNV-6" target="yJDKLL-mW4QxloJMJQi_-12" edge="1">
          <mxGeometry width="50" height="50" relative="1" as="geometry">
            <mxPoint x="-440" y="540" as="sourcePoint" />
            <mxPoint x="-420" y="290" as="targetPoint" />
            <Array as="points">
              <mxPoint x="-470" y="370" />
            </Array>
          </mxGeometry>
        </mxCell>
        <mxCell id="yJDKLL-mW4QxloJMJQi_-14" value="CSE 331" style="rhombus;whiteSpace=wrap;html=1;shadow=0;fontFamily=Helvetica;fontSize=12;align=center;strokeWidth=1;spacing=6;spacingTop=-4;fillColor=#f5f5f5;fontColor=#333333;strokeColor=#666666;" parent="WIyWlLk6GJQsqaUBKTNV-1" vertex="1">
          <mxGeometry x="-570" y="210" width="100" height="80" as="geometry" />
        </mxCell>
        <mxCell id="yJDKLL-mW4QxloJMJQi_-19" value="" style="endArrow=classic;html=1;rounded=0;entryX=0;entryY=0.5;entryDx=0;entryDy=0;exitX=0.5;exitY=0;exitDx=0;exitDy=0;" parent="WIyWlLk6GJQsqaUBKTNV-1" source="WIyWlLk6GJQsqaUBKTNV-3" target="yJDKLL-mW4QxloJMJQi_-14" edge="1">
          <mxGeometry width="50" height="50" relative="1" as="geometry">
            <mxPoint x="-630" y="440" as="sourcePoint" />
            <mxPoint x="-660" y="370" as="targetPoint" />
            <Array as="points">
              <mxPoint x="-700" y="250" />
            </Array>
          </mxGeometry>
        </mxCell>
        <mxCell id="yJDKLL-mW4QxloJMJQi_-20" value="CSE 351" style="rhombus;whiteSpace=wrap;html=1;shadow=0;fontFamily=Helvetica;fontSize=12;align=center;strokeWidth=1;spacing=6;spacingTop=-4;fillColor=#b0e3e6;strokeColor=#0e8088;" parent="WIyWlLk6GJQsqaUBKTNV-1" vertex="1">
          <mxGeometry x="-570.62" y="550" width="100" height="80" as="geometry" />
        </mxCell>
        <mxCell id="yJDKLL-mW4QxloJMJQi_-21" value="" style="endArrow=classic;html=1;rounded=0;entryX=0;entryY=0.5;entryDx=0;entryDy=0;exitX=0.75;exitY=1;exitDx=0;exitDy=0;" parent="WIyWlLk6GJQsqaUBKTNV-1" source="WIyWlLk6GJQsqaUBKTNV-3" target="yJDKLL-mW4QxloJMJQi_-20" edge="1">
          <mxGeometry width="50" height="50" relative="1" as="geometry">
            <mxPoint x="-660" y="530" as="sourcePoint" />
            <mxPoint x="-580" y="346.35" as="targetPoint" />
            <Array as="points">
              <mxPoint x="-670" y="590" />
            </Array>
          </mxGeometry>
        </mxCell>
        <mxCell id="yJDKLL-mW4QxloJMJQi_-23" value="" style="endArrow=classic;html=1;rounded=0;exitX=1;exitY=0.5;exitDx=0;exitDy=0;entryX=0;entryY=0.5;entryDx=0;entryDy=0;" parent="WIyWlLk6GJQsqaUBKTNV-1" source="WIyWlLk6GJQsqaUBKTNV-3" target="WIyWlLk6GJQsqaUBKTNV-6" edge="1">
          <mxGeometry width="50" height="50" relative="1" as="geometry">
            <mxPoint x="-620" y="560" as="sourcePoint" />
            <mxPoint x="-570" y="510" as="targetPoint" />
          </mxGeometry>
        </mxCell>
        <mxCell id="yJDKLL-mW4QxloJMJQi_-26" value="CSE 421 - Algo" style="rounded=1;whiteSpace=wrap;html=1;fillColor=#f5f5f5;fontColor=#333333;strokeColor=#666666;" parent="WIyWlLk6GJQsqaUBKTNV-1" vertex="1">
          <mxGeometry x="-50" y="60" width="120" height="40" as="geometry" />
        </mxCell>
        <mxCell id="yJDKLL-mW4QxloJMJQi_-28" value="" style="endArrow=classic;html=1;rounded=0;exitX=1;exitY=0.5;exitDx=0;exitDy=0;entryX=0;entryY=0.25;entryDx=0;entryDy=0;strokeColor=#CC6600;" parent="WIyWlLk6GJQsqaUBKTNV-1" source="yJDKLL-mW4QxloJMJQi_-12" target="yJDKLL-mW4QxloJMJQi_-26" edge="1">
          <mxGeometry width="50" height="50" relative="1" as="geometry">
            <mxPoint x="-220" y="600" as="sourcePoint" />
            <mxPoint x="-170" y="550" as="targetPoint" />
            <Array as="points">
              <mxPoint x="-260" y="370" />
              <mxPoint x="-260" y="70" />
            </Array>
          </mxGeometry>
        </mxCell>
        <mxCell id="yJDKLL-mW4QxloJMJQi_-30" value="CSE 442 - Vis." style="rounded=1;whiteSpace=wrap;html=1;fillColor=#f5f5f5;fontColor=#333333;strokeColor=#666666;" parent="WIyWlLk6GJQsqaUBKTNV-1" vertex="1">
          <mxGeometry x="-50" y="140.00000000000003" width="120" height="40" as="geometry" />
        </mxCell>
        <mxCell id="yJDKLL-mW4QxloJMJQi_-33" value="CSE 446 - ML" style="rounded=1;whiteSpace=wrap;html=1;fillColor=#f5f5f5;fontColor=#333333;strokeColor=#666666;" parent="WIyWlLk6GJQsqaUBKTNV-1" vertex="1">
          <mxGeometry x="-50" y="670" width="120" height="40" as="geometry" />
        </mxCell>
        <mxCell id="yJDKLL-mW4QxloJMJQi_-34" value="" style="endArrow=classic;html=1;rounded=0;exitX=1;exitY=0.5;exitDx=0;exitDy=0;entryX=0;entryY=0.75;entryDx=0;entryDy=0;strokeColor=#00994D;" parent="WIyWlLk6GJQsqaUBKTNV-1" source="yJDKLL-mW4QxloJMJQi_-2" target="yJDKLL-mW4QxloJMJQi_-33" edge="1">
          <mxGeometry width="50" height="50" relative="1" as="geometry">
            <mxPoint x="-450" y="690" as="sourcePoint" />
            <mxPoint x="-210" y="580" as="targetPoint" />
            <Array as="points">
              <mxPoint x="-220" y="830" />
              <mxPoint x="-220" y="700" />
            </Array>
          </mxGeometry>
        </mxCell>
        <mxCell id="yJDKLL-mW4QxloJMJQi_-35" value="" style="endArrow=classic;html=1;rounded=0;exitX=1;exitY=0;exitDx=0;exitDy=0;entryX=0;entryY=0.75;entryDx=0;entryDy=0;strokeColor=#0066CC;" parent="WIyWlLk6GJQsqaUBKTNV-1" source="yJDKLL-mW4QxloJMJQi_-9" target="yJDKLL-mW4QxloJMJQi_-26" edge="1">
          <mxGeometry width="50" height="50" relative="1" as="geometry">
            <mxPoint x="-260" y="510" as="sourcePoint" />
            <mxPoint x="-210" y="460" as="targetPoint" />
            <Array as="points">
              <mxPoint x="-210" y="450" />
              <mxPoint x="-210" y="90" />
            </Array>
          </mxGeometry>
        </mxCell>
        <mxCell id="yJDKLL-mW4QxloJMJQi_-36" value="" style="endArrow=classic;html=1;rounded=0;exitX=1;exitY=0.5;exitDx=0;exitDy=0;entryX=0;entryY=0.5;entryDx=0;entryDy=0;strokeColor=#0066CC;" parent="WIyWlLk6GJQsqaUBKTNV-1" source="yJDKLL-mW4QxloJMJQi_-9" target="yJDKLL-mW4QxloJMJQi_-33" edge="1">
          <mxGeometry width="50" height="50" relative="1" as="geometry">
            <mxPoint x="-250" y="550" as="sourcePoint" />
            <mxPoint x="-200" y="500" as="targetPoint" />
            <Array as="points">
              <mxPoint x="-280" y="470" />
              <mxPoint x="-280" y="690" />
            </Array>
          </mxGeometry>
        </mxCell>
        <mxCell id="yJDKLL-mW4QxloJMJQi_-37" value="" style="endArrow=classic;html=1;rounded=0;entryX=0;entryY=0.25;entryDx=0;entryDy=0;strokeColor=#CC6600;" parent="WIyWlLk6GJQsqaUBKTNV-1" target="yJDKLL-mW4QxloJMJQi_-33" edge="1">
          <mxGeometry width="50" height="50" relative="1" as="geometry">
            <mxPoint x="-260" y="370" as="sourcePoint" />
            <mxPoint x="-170" y="470" as="targetPoint" />
            <Array as="points">
              <mxPoint x="-260" y="680" />
            </Array>
          </mxGeometry>
        </mxCell>
        <mxCell id="yJDKLL-mW4QxloJMJQi_-38" value="" style="endArrow=classic;html=1;rounded=0;exitX=1;exitY=0.5;exitDx=0;exitDy=0;entryX=0;entryY=0.5;entryDx=0;entryDy=0;strokeColor=#990000;" parent="WIyWlLk6GJQsqaUBKTNV-1" source="WIyWlLk6GJQsqaUBKTNV-6" target="yJDKLL-mW4QxloJMJQi_-9" edge="1">
          <mxGeometry width="50" height="50" relative="1" as="geometry">
            <mxPoint x="-400" y="590" as="sourcePoint" />
            <mxPoint x="-350" y="540" as="targetPoint" />
            <Array as="points">
              <mxPoint x="-470" y="470" />
            </Array>
          </mxGeometry>
        </mxCell>
        <mxCell id="yJDKLL-mW4QxloJMJQi_-39" value="CSE 447 - NLP" style="rounded=1;whiteSpace=wrap;html=1;fillColor=#f5f5f5;fontColor=#333333;strokeColor=#666666;" parent="WIyWlLk6GJQsqaUBKTNV-1" vertex="1">
          <mxGeometry x="-50" y="220" width="120" height="40" as="geometry" />
        </mxCell>
        <mxCell id="yJDKLL-mW4QxloJMJQi_-40" value="" style="endArrow=classic;html=1;rounded=0;entryX=0;entryY=0.25;entryDx=0;entryDy=0;strokeColor=#CC6600;" parent="WIyWlLk6GJQsqaUBKTNV-1" target="yJDKLL-mW4QxloJMJQi_-39" edge="1">
          <mxGeometry width="50" height="50" relative="1" as="geometry">
            <mxPoint x="-260" y="230" as="sourcePoint" />
            <mxPoint x="-130" y="500" as="targetPoint" />
          </mxGeometry>
        </mxCell>
        <mxCell id="yJDKLL-mW4QxloJMJQi_-41" value="" style="endArrow=classic;html=1;rounded=0;entryX=0;entryY=0.75;entryDx=0;entryDy=0;strokeColor=#0066CC;" parent="WIyWlLk6GJQsqaUBKTNV-1" target="yJDKLL-mW4QxloJMJQi_-39" edge="1">
          <mxGeometry width="50" height="50" relative="1" as="geometry">
            <mxPoint x="-210" y="250" as="sourcePoint" />
            <mxPoint x="-120" y="580" as="targetPoint" />
          </mxGeometry>
        </mxCell>
        <mxCell id="yJDKLL-mW4QxloJMJQi_-42" value="CSE 333 - Syst." style="rounded=1;whiteSpace=wrap;html=1;fillColor=#d0cee2;strokeColor=#56517e;" parent="WIyWlLk6GJQsqaUBKTNV-1" vertex="1">
          <mxGeometry x="-420" y="570" width="120" height="40" as="geometry" />
        </mxCell>
        <mxCell id="yJDKLL-mW4QxloJMJQi_-43" value="" style="endArrow=classic;html=1;rounded=0;entryX=0;entryY=0.5;entryDx=0;entryDy=0;strokeColor=#009999;exitX=1;exitY=0.5;exitDx=0;exitDy=0;" parent="WIyWlLk6GJQsqaUBKTNV-1" source="yJDKLL-mW4QxloJMJQi_-20" target="yJDKLL-mW4QxloJMJQi_-42" edge="1">
          <mxGeometry width="50" height="50" relative="1" as="geometry">
            <mxPoint x="-470" y="590" as="sourcePoint" />
            <mxPoint x="-390" y="640" as="targetPoint" />
          </mxGeometry>
        </mxCell>
        <mxCell id="yJDKLL-mW4QxloJMJQi_-44" value="CSE 455 - CompVis" style="rounded=1;whiteSpace=wrap;html=1;fillColor=#f5f5f5;fontColor=#333333;strokeColor=#666666;" parent="WIyWlLk6GJQsqaUBKTNV-1" vertex="1">
          <mxGeometry x="-50" y="450.23" width="120" height="40" as="geometry" />
        </mxCell>
        <mxCell id="yJDKLL-mW4QxloJMJQi_-47" value="" style="endArrow=classic;html=1;rounded=0;entryX=0;entryY=0.25;entryDx=0;entryDy=0;strokeColor=#CC6600;" parent="WIyWlLk6GJQsqaUBKTNV-1" target="yJDKLL-mW4QxloJMJQi_-44" edge="1">
          <mxGeometry width="50" height="50" relative="1" as="geometry">
            <mxPoint x="-260" y="460" as="sourcePoint" />
            <mxPoint x="-150" y="530" as="targetPoint" />
          </mxGeometry>
        </mxCell>
        <mxCell id="WIyWlLk6GJQsqaUBKTNV-6" value="CSE 311" style="rhombus;whiteSpace=wrap;html=1;shadow=0;fontFamily=Helvetica;fontSize=12;align=center;strokeWidth=1;spacing=6;spacingTop=-4;fillColor=#f8cecc;strokeColor=#b85450;" parent="WIyWlLk6GJQsqaUBKTNV-1" vertex="1">
          <mxGeometry x="-570" y="430.12" width="100" height="80" as="geometry" />
        </mxCell>
        <mxCell id="yJDKLL-mW4QxloJMJQi_-2" value="MATH 208" style="rhombus;whiteSpace=wrap;html=1;shadow=0;fontFamily=Helvetica;fontSize=12;align=center;strokeWidth=1;spacing=6;spacingTop=-4;fillColor=#d5e8d4;strokeColor=#82b366;" parent="WIyWlLk6GJQsqaUBKTNV-1" vertex="1">
          <mxGeometry x="-570.62" y="789.8900000000001" width="100" height="80" as="geometry" />
        </mxCell>
        <mxCell id="yJDKLL-mW4QxloJMJQi_-0" value="MATH 126" style="rounded=1;whiteSpace=wrap;html=1;" parent="WIyWlLk6GJQsqaUBKTNV-1" vertex="1">
          <mxGeometry x="-760" y="810" width="120" height="40" as="geometry" />
        </mxCell>
        <mxCell id="WIyWlLk6GJQsqaUBKTNV-3" value="CSE 143" style="rounded=1;whiteSpace=wrap;html=1;fontSize=12;glass=0;strokeWidth=1;shadow=0;" parent="WIyWlLk6GJQsqaUBKTNV-1" vertex="1">
          <mxGeometry x="-760" y="450.23" width="120" height="40" as="geometry" />
        </mxCell>
        <mxCell id="yJDKLL-mW4QxloJMJQi_-48" value="" style="endArrow=classic;html=1;rounded=0;exitX=1;exitY=0.75;exitDx=0;exitDy=0;strokeColor=#A680B8;entryX=0;entryY=0.75;entryDx=0;entryDy=0;" parent="WIyWlLk6GJQsqaUBKTNV-1" source="yJDKLL-mW4QxloJMJQi_-42" target="yJDKLL-mW4QxloJMJQi_-49" edge="1">
          <mxGeometry width="50" height="50" relative="1" as="geometry">
            <mxPoint x="-290" y="600" as="sourcePoint" />
            <mxPoint x="-50" y="640" as="targetPoint" />
            <Array as="points">
              <mxPoint x="-210" y="600" />
              <mxPoint x="-210" y="540" />
            </Array>
          </mxGeometry>
        </mxCell>
        <mxCell id="yJDKLL-mW4QxloJMJQi_-49" value="CSE 457 - Graphics" style="rounded=1;whiteSpace=wrap;html=1;fillColor=#f5f5f5;fontColor=#333333;strokeColor=#666666;" parent="WIyWlLk6GJQsqaUBKTNV-1" vertex="1">
          <mxGeometry x="-50" y="510.12" width="120" height="40" as="geometry" />
        </mxCell>
        <mxCell id="yJDKLL-mW4QxloJMJQi_-50" value="" style="endArrow=classic;html=1;rounded=0;entryX=0;entryY=0.25;entryDx=0;entryDy=0;strokeColor=#CC6600;" parent="WIyWlLk6GJQsqaUBKTNV-1" target="yJDKLL-mW4QxloJMJQi_-49" edge="1">
          <mxGeometry width="50" height="50" relative="1" as="geometry">
            <mxPoint x="-260" y="520" as="sourcePoint" />
            <mxPoint x="-70" y="610" as="targetPoint" />
          </mxGeometry>
        </mxCell>
        <mxCell id="yJDKLL-mW4QxloJMJQi_-51" value="" style="endArrow=classic;html=1;rounded=0;entryX=0;entryY=0.75;entryDx=0;entryDy=0;strokeColor=#CC6600;" parent="WIyWlLk6GJQsqaUBKTNV-1" target="yJDKLL-mW4QxloJMJQi_-30" edge="1">
          <mxGeometry width="50" height="50" relative="1" as="geometry">
            <mxPoint x="-260" y="170" as="sourcePoint" />
            <mxPoint x="-90" y="140" as="targetPoint" />
          </mxGeometry>
        </mxCell>
        <mxCell id="yJDKLL-mW4QxloJMJQi_-52" value="CSE 473 - AI" style="rounded=1;whiteSpace=wrap;html=1;fillColor=#f5f5f5;fontColor=#333333;strokeColor=#666666;" parent="WIyWlLk6GJQsqaUBKTNV-1" vertex="1">
          <mxGeometry x="-50" y="300" width="120" height="40" as="geometry" />
        </mxCell>
        <mxCell id="yJDKLL-mW4QxloJMJQi_-53" value="" style="endArrow=classic;html=1;rounded=0;entryX=0;entryY=0.25;entryDx=0;entryDy=0;strokeColor=#CC6600;" parent="WIyWlLk6GJQsqaUBKTNV-1" target="yJDKLL-mW4QxloJMJQi_-52" edge="1">
          <mxGeometry width="50" height="50" relative="1" as="geometry">
            <mxPoint x="-260" y="310" as="sourcePoint" />
            <mxPoint x="-80" y="360" as="targetPoint" />
          </mxGeometry>
        </mxCell>
        <mxCell id="yJDKLL-mW4QxloJMJQi_-54" value="" style="endArrow=classic;html=1;rounded=0;entryX=0;entryY=0.75;entryDx=0;entryDy=0;strokeColor=#0066CC;" parent="WIyWlLk6GJQsqaUBKTNV-1" target="yJDKLL-mW4QxloJMJQi_-52" edge="1">
          <mxGeometry width="50" height="50" relative="1" as="geometry">
            <mxPoint x="-210" y="330" as="sourcePoint" />
            <mxPoint x="-80" y="319.40999999999997" as="targetPoint" />
          </mxGeometry>
        </mxCell>
        <mxCell id="yJDKLL-mW4QxloJMJQi_-55" value="CSE 493G1 - DeepL" style="rounded=1;whiteSpace=wrap;html=1;fillColor=#f5f5f5;fontColor=#333333;strokeColor=#666666;" parent="WIyWlLk6GJQsqaUBKTNV-1" vertex="1">
          <mxGeometry x="-50" y="810" width="120" height="40" as="geometry" />
        </mxCell>
        <mxCell id="yJDKLL-mW4QxloJMJQi_-56" value="" style="endArrow=classic;html=1;rounded=0;entryX=0;entryY=0.5;entryDx=0;entryDy=0;strokeColor=#00994D;" parent="WIyWlLk6GJQsqaUBKTNV-1" target="yJDKLL-mW4QxloJMJQi_-55" edge="1">
          <mxGeometry width="50" height="50" relative="1" as="geometry">
            <mxPoint x="-220" y="830" as="sourcePoint" />
            <mxPoint x="-130" y="760" as="targetPoint" />
          </mxGeometry>
        </mxCell>
        <mxCell id="yJDKLL-mW4QxloJMJQi_-57" value="CSE 493S - Adv ML" style="rounded=1;whiteSpace=wrap;html=1;fillColor=#f5f5f5;fontColor=#333333;strokeColor=#666666;" parent="WIyWlLk6GJQsqaUBKTNV-1" vertex="1">
          <mxGeometry x="-50" y="900" width="120" height="40" as="geometry" />
        </mxCell>
      </root>
    </mxGraphModel>
  </diagram>
</mxfile>
